<?xml version="1.0" encoding="UTF-8"?>
<svg width="257px" height="101px" viewBox="0 0 257 101" version="1.1" xmlns="http://www.w3.org/2000/svg" xmlns:xlink="http://www.w3.org/1999/xlink">
    <title>2A31F740-98F3-4DF7-9697-E6A3BC1F2363</title>
    <g id="Web-/-Under-Construction" stroke="none" stroke-width="1" fill="none" fill-rule="evenodd">
        <g id="Wallet-Copy" transform="translate(-84.000000, -45.000000)">
            <g id="Group-54" transform="translate(84.000000, 45.000000)">
                <path d="M256.938402,96.9427223 L245.520542,100.754368 L233.664656,95.5667611 C233.664656,95.5667611 230.697,90.6327343 230.710432,87.1397177 C230.731741,81.6352755 230.757207,61.0695619 230.757207,61.0695619 L225.513172,55.7042388 L220.060727,61.3206284 L220.060901,98.5952381 L218.078666,100.658657 L203.962909,100.688002 L202.286793,98.3843857 L202.258035,61.3048688 L196.971902,55.7036953 L191.617166,61.6379938 L191.629119,98.3464121 L190.886431,100.765237 L177.769068,100.765237 L173.908543,97.3796432 L162.992739,100.859251 C162.992739,100.859251 150.947051,96.5074317 150.245421,95.7781434 C148.932048,96.9788438 145.125085,99.3035797 145.125085,99.3035797 L137.577101,101 L128.913365,99.0234458 L123.547099,94.7733341 L110.181827,100.882618 C110.181827,100.882618 93.5672275,86.6962756 93.5667078,85.4077938 C93.5641092,77.4758322 93.5408734,13.2261905 93.5408734,13.2261905 L111.321738,20.5728737 L111.345493,85.940359 L116.629027,91.7464071 L120.56855,89.7183117 L118.587874,78.1344741 L119.62649,67.1408829 L124.078154,56.3857465 L135.518464,47.9775578 L153.483833,46.1751249 L157.389574,50.2590308 L145.140089,56.4393494 L137.967201,66.3585074 L136.382771,75.7612981 L136.968771,84.4195416 L143.057611,91.7480374 C143.057611,91.7480374 147.540248,88.8944659 147.540248,88.6287267 C147.557398,85.2012889 147.710889,61.7243037 147.710889,61.7243037 L165.495391,53.5059524 L165.495391,88.375 L170.568265,91.7485808 L173.851893,90.4269495 L173.83942,47.9016145 L190.709443,49.2419914 L191.676414,51.2779695 L205.596235,45.6153879 L218.638237,51.8137953 L232.644852,45.6153879 L245.531663,53.7598536 L248.513124,59.2050401 L248.507407,86.3256537 L249.914939,89.141478 L253.687516,91.6148961 L257,91.2131783 L256.938402,96.9427223 Z" id="logo" fill="#000000" fill-rule="nonzero"></path>
                <polyline id="Path-7" points="73.8997884 6.2099768 61.2697718 16.8085457 30.705841 14.2397722 25.6680254 48.1285535 75.2124587 40.517373 49.73956 88.56295 18.8918086 69.7633341 0 91.6264501"></polyline>
                <polyline id="Path-10" points="59.8206493 8.78770302 61.3489141 16.5874832 59.8206493 34.2134571"></polyline>
                <polyline id="Path-11" fill="#6870EE" points="42.3547663 0 30.5806702 14.4285714 12.9902505 10.0380304"></polyline>
                <polygon id="Path-12" fill="#3E34D2" points="1.41910299 38.7830626 25.6866739 48.2576429 29.6920011 61.8654292"></polygon>
                <line x1="75.2124587" y1="40.5406032" x2="55.0175315" y2="62.8027842" id="Path-13"></line>
                <polyline id="Path-14" points="85.1461797 67.0208817 49.8869283 88.5855465 67.5608273 93.8526682"></polyline>
                <line x1="49.8869283" y1="88.5800464" x2="31.9843983" y2="101" id="Path-15"></line>
                <line x1="12.9902505" y1="87.6426914" x2="18.884986" y2="69.950116" id="Path-16"></line>
                <line x1="25.6530157" y1="48.2737819" x2="39.6257221" y2="35.6194896" id="Path-17"></line>
                <polygon id="Path-18" fill="#757CF0" points="12.9470712 10.0765661 30.674457 14.3368615 25.6796405 48.2737819 1.41910299 38.7723042"></polygon>
                <polygon id="Path-19" fill="#3D33D2" points="30.5652953 14.3159671 61.2397523 16.8723898 59.9620984 9.01785714 42.2480495 0"></polygon>
                <polygon id="Path-20" fill="#453ED7" points="59.7114875 9.04980901 73.9025175 6.2099768 61.1613403 16.8333333"></polygon>
                <polygon id="Path-21" fill="#3020C8" points="61.1613403 16.8333333 73.9025175 6.2099768 59.7114875 34.4477958"></polygon>
                <polygon id="Path-22" fill="#AEB3F6" points="61.2397523 16.845693 59.6998845 34.4477958 40.9028777 26.3636633 30.5652953 14.2946636"></polygon>
                <polygon id="Path-23" fill="#9DA2F4" points="30.6481223 14.2946636 40.9356633 26.2834515 39.7229264 35.5654276 25.6530157 48.1566125"></polygon>
                <polygon id="Path-24" fill="#433BD6" points="25.6530157 48.1566125 39.7241357 35.3851508 75.2124587 40.5090307"></polygon>
                <polygon id="Path-25" fill="#A2A7F5" points="25.6530157 48.173351 75.2124587 40.5406032 75.0979352 40.6668629 74.8098457 40.9844753 55.1651305 63.125 29.6938336 61.7850845"></polygon>
                <polygon id="Path-26" fill="#433BD6" points="75.1738662 40.5406032 85.1461797 67.0726887 49.7685416 88.9761905"></polygon>
                <polygon id="Path-27" fill="#9499F3" points="75.2124587 40.5406032 55.0770514 62.8283164 47.8128547 75.6756318 49.7685416 88.9761905"></polygon>
                <polygon id="Path-28" fill="#757CF0" points="49.8869283 88.685369 85.1461797 67.138051 66.5579292 101"></polygon>
                <polygon id="Path-29" fill="#4640D8" points="66.5579292 101 49.921391 88.5800464 31.8752365 101"></polygon>
                <polygon id="Path-30" fill="#A2A7F5" points="31.8662204 101 49.8869283 88.6140016 18.5882505 69.1369048 14.8947548 81.3138832 12.9902505 87.5927882"></polygon>
                <polygon id="Path-31" fill="#757CF0" points="13.1916616 87.7738095 18.884986 69.7157773 0 91.6264501"></polygon>
                <polygon id="Path-32" fill="#4640D8" points="0 91.7436195 14.7710736 58.9361949 18.884986 69.8274969"></polygon>
                <polygon id="Path-33" fill="#878EF2" points="14.7368388 58.9361949 47.9696787 75.75 49.8869283 88.6972158 18.8406563 69.8570845"></polygon>
            </g>
        </g>
    </g>
</svg>