<?xml version="1.0" encoding="UTF-8"?>
<svg width="70px" height="70px" viewBox="0 0 70 70" version="1.1" xmlns="http://www.w3.org/2000/svg" xmlns:xlink="http://www.w3.org/1999/xlink">
    <title>0DD84FF9-4434-4347-8B99-C81B57624BA0</title>
    <defs>
        <linearGradient x1="50%" y1="0%" x2="50%" y2="100%" id="linearGradient-1">
            <stop stop-color="#383AB5" offset="0%"></stop>
            <stop stop-color="#2C1D6A" offset="100%"></stop>
        </linearGradient>
    </defs>
    <g id="Web-/-Under-Construction" stroke="none" stroke-width="1" fill="none" fill-rule="evenodd">
        <g id="Wallet-Copy" transform="translate(-2143.000000, -45.000000)">
            <g id="Group-55" transform="translate(2143.000000, 45.000000)">
                <circle id="Oval" fill="url(#linearGradient-1)" cx="35" cy="35" r="35"></circle>
                <g id="Group-12" transform="translate(15.714286, 12.142857)">
                    <polyline id="Path-7" points="33.4767857 2.81073914 27.7553571 7.60782831 13.9098214 6.44515858 11.6276786 21.7837866 34.0714286 18.3388392 22.5321429 40.0850693 8.55803571 31.5760494 0 41.4716606"></polyline>
                    <polyline id="Path-10" points="27.0989011 3.97746105 27.7912088 7.50777175 27.0989011 15.4855817"></polyline>
                    <polyline id="Path-11" fill="#E9E9E9" points="19.1868132 0 13.8531187 6.53061224 5.8756768 4.56579179"></polyline>
                    <polygon id="Path-12" fill="#EAEAEA" points="0.642857143 17.5538615 11.6361264 21.8422146 13.4505495 28.0013258"></polygon>
                    <line x1="34.0714286" y1="18.3493537" x2="24.9230769" y2="28.4255883" id="Path-13"></line>
                    <polyline id="Path-14" points="38.5714286 30.3347696 22.5989011 40.0952969 30.6052207 42.4792841"></polyline>
                    <line x1="22.5989011" y1="40.0928074" x2="14.489011" y2="45.7142857" id="Path-15"></line>
                    <line x1="5.88461538" y1="39.6685449" x2="8.55494505" y2="31.66059" id="Path-16"></line>
                    <line x1="11.6208791" y1="21.8495194" x2="17.9505495" y2="16.1219755" id="Path-17"></line>
                    <polygon id="Path-18" fill="#FFFFFF" points="5.86505508 4.56082201 13.8956044 6.4891028 11.6329402 21.8495194 0.642857143 17.548992"></polygon>
                    <polygon id="Path-19" fill="#FFFFFF" points="13.8461538 6.47964564 27.7417582 7.63672522 27.1629779 4.08163265 19.1384702 0"></polygon>
                    <polygon id="Path-20" fill="#EBEBEB" points="27.0494505 4.0960946 33.478022 2.81073914 27.7062374 7.61904762"></polygon>
                    <polygon id="Path-21" fill="#FFFEFE" points="27.7062374 7.61904762 33.478022 2.81073914 27.0494505 15.5916473"></polygon>
                    <polygon id="Path-22" fill="#EBEBEB" points="27.7417582 7.6246418 27.0441943 15.5916473 18.5291041 11.932634 13.8461538 6.47000331"></polygon>
                    <polygon id="Path-23" fill="#F4F4F4" points="13.8836747 6.47000331 18.543956 11.8963288 17.9945832 16.0975061 11.6208791 21.7964866"></polygon>
                    <polygon id="Path-24" fill="#EBEBEB" points="11.6208791 21.7964866 17.9951311 16.0159098 34.0733028 18.3477189"></polygon>
                    <polygon id="Path-25" fill="#F3F3F3" points="11.6107872 21.7861547 34.0733028 18.3477189 34.0195491 18.4065009 33.8890439 18.5502576 24.9899396 28.5714286 13.4513796 27.9649605"></polygon>
                    <polygon id="Path-26" fill="#EFF0F1" points="34.0733028 18.3477189 38.5714286 30.3582184 22.5452716 40.2721088"></polygon>
                    <polygon id="Path-27" fill="#FFFFFF" points="34.0714286 18.3493537 24.9500396 28.4371446 21.6593407 34.252054 22.5452716 40.2721088"></polygon>
                    <polygon id="Path-28" fill="#FFFFFF" points="22.5989011 40.1404782 38.5714286 30.3540602 30.1509054 45.7142857"></polygon>
                    <polygon id="Path-29" fill="#E1E1E1" points="30.1509054 45.7142857 22.6145128 40.0928074 14.4395604 45.7142857"></polygon>
                    <polygon id="Path-30" fill="#FBFBFB" points="14.4354761 45.7142857 22.5989011 40.1081761 8.42052314 31.292517 6.74736053 36.8040207 5.88461538 39.6459579"></polygon>
                    <polygon id="Path-31" fill="#F1F1F1" points="5.97585513 39.7278912 8.55494505 31.5545244 0 41.4716606"></polygon>
                    <polygon id="Path-32" fill="#FFFFFF" points="0 41.5246934 6.69133261 26.6755055 8.55494505 31.6050905"></polygon>
                    <polygon id="Path-33" fill="#EDEDED" points="6.67582418 26.6755055 21.7303823 34.2857143 22.5989011 40.1458402 8.53486361 31.6184824"></polygon>
                </g>
            </g>
        </g>
    </g>
</svg>